<?xml version="1.0" encoding="utf-8"?>
<!-- Generator: Adobe Illustrator 24.1.0, SVG Export Plug-In . SVG Version: 6.00 Build 0)  -->
<svg version="1.1" id="Capa_1" xmlns="http://www.w3.org/2000/svg" xmlns:xlink="http://www.w3.org/1999/xlink" x="0px" y="0px"
	 viewBox="0 0 512 512" style="enable-background:new 0 0 512 512;" xml:space="preserve">
<style type="text/css">
	.st0{fill:#F4F4F4;}
	.st1{fill:#FFFFFF;}
	.st2{fill:none;}
	.st3{fill:#EDF5F9;}
	.st4{font-family:'IBMPlexSans-Bold';}
	.st5{font-size:48px;}
</style>
<g>
	<path class="st0" d="M244,7.1L18,71.3v133.3c0,69.9,21.5,136.8,62.2,193.4c39.8,55.4,94.7,96.6,158.8,119.2l5,1.8l5-1.8
		c64-22.6,118.9-63.9,158.8-119.2c40.7-56.6,62.2-123.5,62.2-193.4V71.3L244,7.1z M244,422c-35.9-17.4-67.2-43.8-90.7-76.5
		c-24.2-33.6-39.1-72.3-43.7-113.1L244,194.2l134.4,38.2c-4.6,40.8-19.5,79.4-43.7,113.1C311.2,378.3,279.9,404.6,244,422z
		 M380,201.7L244,163l-136,38.7v-62.4l136-38.7l136,38.7V201.7z M48,204.7V94l181-51.5v31.2L78,116.7v88c0,57.3,17.6,112,50.9,158.3
		c26,36.2,60.5,65.4,100.1,85v33.1C119.9,433.6,48,325.1,48,204.7L48,204.7z M440,204.7c0,120.4-71.9,228.9-181,276.5v-33.1
		c39.6-19.6,74-48.8,100.1-85C392.4,316.7,410,262,410,204.7v-88L259,73.7V42.5L440,94V204.7z"/>
</g>
<g id="Page-1">
	<g id="_x30_02---Virus">
		<path id="Shape" class="st1" d="M236.7,293.7c7.4,0,13.3-6.5,13.3-14.4c0-8-6-14.4-13.3-14.4c-7.4,0-13.3,6.5-13.3,14.4
			C223.3,287.2,229.3,293.7,236.7,293.7z M236.7,270.6c4.4,0,8,3.9,8,8.7c0,4.8-3.6,8.7-8,8.7c-4.4,0-8-3.9-8-8.7
			C228.7,274.5,232.3,270.6,236.7,270.6z"/>
		<path id="Shape_1_" class="st1" d="M266,296.6c4.4,0,8-3.9,8-8.7c0-4.8-3.6-8.7-8-8.7c-4.4,0-8,3.9-8,8.7
			C258,292.7,261.6,296.6,266,296.6z M266,285c1.5,0,2.7,1.3,2.7,2.9s-1.2,2.9-2.7,2.9c-1.5,0-2.7-1.3-2.7-2.9S264.5,285,266,285z"
			/>
		<path id="Shape_2_" class="st1" d="M215.3,311c4.4,0,8-3.9,8-8.7s-3.6-8.7-8-8.7c-4.4,0-8,3.9-8,8.7
			C207.3,307.1,210.9,311,215.3,311z M215.3,299.5c1.5,0,2.7,1.3,2.7,2.9s-1.2,2.9-2.7,2.9c-1.5,0-2.7-1.3-2.7-2.9
			S213.9,299.5,215.3,299.5z"/>
		<path id="Shape_3_" class="st1" d="M231.3,316.8c0,9.6,7.2,17.3,16,17.3s16-7.8,16-17.3s-7.2-17.3-16-17.3
			C238.5,299.5,231.3,307.2,231.3,316.8z M258,316.8c0,6.4-4.8,11.5-10.7,11.5s-10.7-5.2-10.7-11.5c0-6.4,4.8-11.5,10.7-11.5
			S258,310.4,258,316.8z"/>
		<path id="Shape_4_" class="st1" d="M175.3,308.1c2,0,3.9-0.6,5.6-1.7c0.8-0.6,1.7-1,2.7-1c3.4,0.2,8.5,0.6,14,1.4
			c0.4,2.1,0.9,4.2,1.5,6.2c-4.6,3.9-8.9,7-11.6,8.9c-0.7,0.4-1.5,0.6-2.3,0.5c-2.8-0.2-5.5,0.9-7.6,2.8c-3.4,3.1-4.6,8.2-3,12.7
			c1.1,3.2,3.4,5.7,6.4,6.8c3,1.2,6.2,0.8,8.9-0.9c1.7-1.1,3.2-2.6,4.1-4.6c0.4-0.9,1-1.7,1.9-2.3c2.6-1.4,9.2-4.6,12.9-6.3
			c1.3,1.6,2.7,3.1,4.2,4.5c-2.3,6.1-4.7,11.4-6,14.1c-0.4,0.7-1,1.3-1.7,1.7c-3.2,1.8-5.4,5.2-5.8,9c-0.4,3.9,1,7.7,3.8,10.2
			c1.9,1.7,4.3,2.7,6.8,2.7c2.9,0,5.6-1.3,7.6-3.5c2-2.2,3.1-5.3,3-8.4c-0.1-1,0.1-2.1,0.6-3c1.9-3.1,4.7-7.7,8.2-12.4
			c1.9,0.7,3.8,1.2,5.7,1.7c0.4,3.5,1.2,12.1,1.4,15.4c0,0.9-0.3,1.7-0.7,2.4c-2,3.3-2.3,7.4-0.9,11c1.4,3.6,4.4,6.1,8,6.8
			c0.6,0.1,1.2,0.2,1.8,0.1c2.8,0,5.5-1.2,7.5-3.4s3.1-5.1,3.1-8.2c0-2.2-0.6-4.3-1.6-6.1c-0.5-0.8-0.8-1.8-0.8-2.8
			c0.2-3.7,0.5-9.2,1.3-15.2c1.9-0.4,3.9-1,5.8-1.7c3.8,5.2,6.8,10.1,8.3,12.7c0.4,0.8,0.6,1.6,0.5,2.5c-0.2,3.2,0.9,6.3,2.9,8.6
			c2,2.3,4.8,3.6,7.8,3.6c1.2,0,2.5-0.2,3.7-0.7c2.9-1.2,5.3-3.7,6.3-6.9c1.1-3.2,0.8-6.7-0.8-9.7c-1-1.9-2.4-3.4-4.2-4.4
			c-0.9-0.4-1.6-1.2-2.1-2.1c-1.6-3.3-3.8-8.3-5.9-13.9c1.5-1.4,2.9-2.9,4.2-4.5c6.4,3,11.1,5.3,13,6.4c0.7,0.4,1.2,1.1,1.6,1.9
			c1.6,3.4,4.7,5.8,8.2,6.3c3.5,0.5,7.1-1,9.4-3.9c2.1-2.6,3-6.1,2.4-9.5c-0.5-3.4-2.4-6.4-5.2-8.1c-1.8-1.1-3.8-1.6-5.8-1.5
			c-0.9,0.1-1.8-0.1-2.6-0.6c-4.1-2.9-7.9-5.8-11.4-8.9c0.6-2,1.1-4.1,1.5-6.2c6.1-0.9,11.4-1.3,14.3-1.4c0.8,0,1.6,0.3,2.2,0.8
			c3.8,2.7,8.8,2.5,12.4-0.5c3.6-3,5-8.2,3.6-12.9c-1.5-4.7-5.5-7.8-10.1-7.8c-2,0-3.9,0.6-5.6,1.7c-0.8,0.6-1.7,0.9-2.7,1
			c-3.4-0.2-8.5-0.6-14-1.4c-0.4-2.1-0.9-4.2-1.5-6.2c4.6-3.9,8.9-7,11.6-8.9c0.7-0.4,1.5-0.6,2.3-0.5c2.8,0.2,5.5-0.9,7.6-2.8
			c3.4-3.1,4.6-8.2,3-12.7c-1.1-3.2-3.4-5.7-6.4-6.8c-3-1.2-6.2-0.8-8.9,0.9c-1.7,1.1-3.2,2.7-4.1,4.6c-0.4,0.9-1,1.7-1.9,2.3
			c-2.6,1.4-9.2,4.6-12.9,6.3c-1.3-1.6-2.7-3.1-4.2-4.4c2.3-6.1,4.7-11.4,6-14.1c0.4-0.7,1-1.3,1.7-1.7c4.1-2.2,6.4-7,5.8-11.9
			c-0.6-4.9-4-8.8-8.5-9.8s-9,1.3-11.3,5.5c-1,1.8-1.5,4-1.4,6.1c0.1,1-0.1,2.1-0.6,3c-1.9,3.1-4.7,7.7-8.2,12.4
			c-1.9-0.7-3.8-1.2-5.7-1.7c-0.4-3.6-1.3-12.2-1.4-15.5c0-0.8,0.3-1.7,0.7-2.3c2.5-4.1,2.3-9.5-0.4-13.4c-2.8-3.9-7.6-5.5-11.9-3.9
			c-4.3,1.6-7.2,6-7.2,10.9c0,2.2,0.6,4.3,1.6,6.1c0.5,0.8,0.8,1.8,0.9,2.8c-0.2,3.2-0.9,10.9-1.4,15.2c-1.9,0.4-3.8,1-5.7,1.7
			c-3.8-5.2-6.8-10.1-8.3-12.7c-0.4-0.7-0.5-1.6-0.5-2.5c0.3-4.9-2.4-9.5-6.6-11.3s-9.1-0.6-12.1,3.1c-3,3.7-3.5,9.1-1.2,13.4
			c1,1.9,2.4,3.4,4.2,4.4c0.9,0.4,1.6,1.2,2.1,2.1c1.6,3.3,3.8,8.3,5.9,13.9c-1.5,1.4-2.9,2.9-4.2,4.5c-3-1.4-10.3-4.9-13-6.4
			c-0.7-0.4-1.2-1.1-1.6-1.9c-2.1-4.4-6.5-6.9-11-6.2s-8.1,4.4-9,9.2c-0.9,4.8,1.2,9.8,5.1,12.2c1.8,1.1,3.8,1.6,5.8,1.5
			c0.9-0.1,1.8,0.1,2.6,0.6c3.9,2.7,7.8,5.7,11.4,8.9c-0.6,2-1.1,4.1-1.5,6.2c-6,0.9-11.4,1.3-14.3,1.4c-0.8,0-1.6-0.3-2.2-0.8
			c-3.8-2.7-8.8-2.5-12.4,0.5c-3.6,3-5,8.2-3.6,12.9C166.7,305,170.8,308.1,175.3,308.1L175.3,308.1z M216.8,355.1
			c-1.1,1.9-1.6,4.1-1.4,6.4c0,1.1-0.2,2.1-0.7,3c-1.1,2.1-3.4,3.2-5.6,2.8c-2.2-0.5-3.9-2.4-4.2-4.9c-0.3-2.4,0.8-4.8,2.9-5.9
			c1.7-0.9,3.2-2.3,4.1-4.2c1.5-3.1,3.5-7.7,5.6-13c2.2,1.7,4.5,3.1,7,4.4C221.1,348,218.5,352.1,216.8,355.1z M277.5,352
			c1,2,2.5,3.5,4.4,4.5c0.9,0.5,1.6,1.3,2.1,2.2c1.1,2.1,0.9,4.8-0.6,6.7c-1.5,1.9-3.9,2.5-6,1.5s-3.4-3.2-3.3-5.7
			c0.2-2.1-0.3-4.2-1.3-5.9c-1.4-2.4-4.1-6.8-7.6-11.7c2.4-1.2,4.8-2.7,7-4.4C274,344.3,276.1,348.9,277.5,352z M305.4,293.5
			c2.1,0.1,4.1-0.6,5.8-1.8c2.3-1.4,5.1-0.9,6.9,1.2c1.8,2.2,1.7,5.4,0,7.6c-1.8,2.2-4.8,2.6-7,0.9c-1.6-1.2-3.5-1.8-5.4-1.7
			c-2.7,0.1-7.5,0.5-13.2,1.3c0.1-1.4,0.2-2.9,0.2-4.4c0-1.5-0.1-2.9-0.2-4.4C297.6,292.9,302.2,293.3,305.4,293.5L305.4,293.5z
			 M272.6,238.1c1.1-1.9,1.6-4.1,1.4-6.4c0-1.1,0.2-2.1,0.7-3c1.1-2.1,3.4-3.2,5.6-2.8s3.9,2.4,4.2,4.9c0.3,2.4-0.8,4.8-2.9,5.9
			c-1.7,0.9-3.2,2.3-4.1,4.2c-1.5,3.1-3.5,7.7-5.6,13c-2.2-1.7-4.5-3.1-7-4.4C268.2,245.1,270.8,241,272.6,238.1L272.6,238.1z
			 M211.8,241.2c-1-2-2.5-3.5-4.4-4.5c-0.9-0.5-1.6-1.3-2.1-2.2c-1.1-2.1-0.9-4.8,0.6-6.7s3.9-2.5,6-1.5c2.1,0.9,3.4,3.2,3.3,5.7
			c-0.2,2.1,0.3,4.2,1.3,5.9c1.7,2.9,4.4,7.2,7.6,11.7c-2.4,1.2-4.8,2.7-7,4.4C215.3,248.8,213.3,244.3,211.8,241.2L211.8,241.2z
			 M190.6,266.3c-1.7-1.2-3.7-1.7-5.8-1.5c-1,0.1-2-0.2-2.9-0.8c-2-1.2-3-3.7-2.5-6.1s2.2-4.3,4.5-4.6c2.2-0.3,4.5,0.9,5.5,3.1
			c0.8,1.9,2.2,3.5,3.9,4.4c2.8,1.6,9.6,4.8,13.4,6.6c2.1,1,4.6,0.4,6.1-1.5c6.1-7.5,14.3-12.6,23.4-14.6c2.3-0.5,4-2.5,4.3-5
			c0.5-4.4,1.3-12.2,1.4-15.5c0.1-2.2-0.5-4.4-1.7-6.2c-0.5-0.9-0.8-2-0.8-3c0-2.5,1.5-4.7,3.6-5.4c2.2-0.8,4.5,0,5.9,2
			c1.4,2,1.5,4.7,0.2,6.7c-1.1,1.7-1.7,3.7-1.6,5.8c0.1,3.3,0.9,11.4,1.4,15.8c0.3,2.5,2,4.5,4.3,5c9,2,17.2,7.1,23.3,14.6
			c1.5,1.9,4,2.5,6.1,1.5c3.7-1.8,10.4-4.9,13.2-6.5c1.8-1.1,3.2-2.7,4.1-4.7c0.5-1,1.2-1.7,2.1-2.3c2.4-1.5,5.4-0.8,7,1.6
			c1.6,2.4,1.3,5.8-0.8,7.7c-1.1,1-2.4,1.5-3.8,1.4c-1.9-0.2-3.8,0.3-5.5,1.4c-2.9,2-7.3,5.2-12,9.3c-1.8,1.5-2.5,4.1-1.7,6.4
			c2.9,9.5,2.9,19.8,0,29.3c-0.7,2.3,0,4.9,1.7,6.4c3.7,3.1,7.7,6.2,11.9,9.1c1.7,1.2,3.7,1.7,5.8,1.6c1-0.1,2,0.2,2.9,0.8
			c2,1.2,3,3.7,2.5,6.1c-0.4,2.4-2.2,4.3-4.5,4.6c-2.2,0.3-4.5-0.9-5.5-3.1c-0.8-1.9-2.2-3.5-3.9-4.4c-2.7-1.5-9.5-4.8-13.4-6.6
			c-2.1-1-4.6-0.4-6.1,1.5c-6.5,8-15.4,13.3-25.2,15c-1.2,0.2-2.1,1.2-2.2,2.5c-1,7-1.4,13.5-1.6,17.7c-0.1,2.2,0.5,4.4,1.7,6.2
			c0.5,0.9,0.8,2,0.8,3.1c0,1.7-0.7,3.3-1.9,4.4c-2,1.8-5,1.8-7-0.1s-2.4-5.1-0.9-7.5c1.1-1.7,1.7-3.7,1.6-5.8
			c-0.1-3.4-0.9-11.4-1.4-15.8c-0.3-2.5-2-4.5-4.3-5c-9-2-17.2-7.1-23.3-14.6c-1-1.3-2.5-2-4-2c-0.7,0-1.4,0.2-2.1,0.5
			c-3.7,1.8-10.4,4.9-13.2,6.5c-1.8,1.1-3.2,2.7-4.1,4.7c-0.5,1-1.2,1.7-2.1,2.3c-2.4,1.5-5.4,0.8-7-1.6c-1.6-2.4-1.2-5.8,0.8-7.7
			c1.1-1,2.4-1.5,3.8-1.4c1.9,0.2,3.8-0.3,5.5-1.4c2.9-2,7.3-5.2,12-9.3c1.8-1.5,2.5-4.1,1.7-6.4c-2.9-9.5-2.9-19.8,0-29.3
			c0.7-2.3,0-4.9-1.7-6.4C198.8,272.4,194.8,269.3,190.6,266.3L190.6,266.3z M170.1,295.6c0.3-1.9,1.5-3.5,3.2-4.3
			c1.6-0.8,3.5-0.6,5,0.5c1.6,1.2,3.5,1.8,5.4,1.7c3.2-0.2,7.9-0.5,13.2-1.3c-0.1,1.4-0.2,2.9-0.2,4.3c0,1.5,0.1,2.9,0.2,4.4
			c-5.1-0.7-9.7-1.1-12.9-1.3c-2.1-0.1-4.1,0.6-5.8,1.8c-2.3,1.4-5.1,0.9-6.9-1.2C170.2,299,169.8,297.3,170.1,295.6L170.1,295.6z"
			/>
	</g>
</g>
<rect x="155.7" y="120.3" class="st2" width="133" height="43.6"/>
<text transform="matrix(1 0 0 1 175.7342 155.8004)" class="st3 st4 st5">Tovit</text>
</svg>
